<?xml version="1.0" encoding="UTF-8" standalone="no"?>
<svg
   xmlns:dc="http://purl.org/dc/elements/1.1/"
   xmlns:cc="http://creativecommons.org/ns#"
   xmlns:rdf="http://www.w3.org/1999/02/22-rdf-syntax-ns#"
   xmlns:svg="http://www.w3.org/2000/svg"
   xmlns="http://www.w3.org/2000/svg"
   xmlns:sodipodi="http://sodipodi.sourceforge.net/DTD/sodipodi-0.dtd"
   xmlns:inkscape="http://www.inkscape.org/namespaces/inkscape"
   version="1.0"
   width="739.06946mm"
   height="779.63892mm"
   viewBox="0 0 2095 2210"
   preserveAspectRatio="xMidYMid meet"
   id="svg30"
   sodipodi:docname="logoEESC.svg"
   inkscape:version="0.92.1 unknown">
  <metadata
     id="metadata36">
    <rdf:RDF>
      <cc:Work
         rdf:about="">
        <dc:format>image/svg+xml</dc:format>
        <dc:type
           rdf:resource="http://purl.org/dc/dcmitype/StillImage" />
        <dc:title></dc:title>
      </cc:Work>
    </rdf:RDF>
  </metadata>
  <defs
     id="defs34" />
  <sodipodi:namedview
     pagecolor="#ffffff"
     bordercolor="#666666"
     borderopacity="1"
     objecttolerance="10"
     gridtolerance="10"
     guidetolerance="10"
     inkscape:pageopacity="0"
     inkscape:pageshadow="2"
     inkscape:window-width="1366"
     inkscape:window-height="744"
     id="namedview32"
     showgrid="false"
     inkscape:document-units="mm"
     units="mm"
     inkscape:zoom="0.11326507"
     inkscape:cx="-463.77873"
     inkscape:cy="1030.0668"
     inkscape:window-x="0"
     inkscape:window-y="24"
     inkscape:window-maximized="1"
     inkscape:current-layer="g28" />
  <g
     transform="matrix(0.1,0,0,-0.1,0,2210)"
     id="g28"
     style="fill:#000000;stroke:none">
    <path
       d="m 8425,21991 c -1329,-533 -2494,-1239 -3510,-2126 -192,-168 -669,-642 -821,-815 -925,-1056 -1491,-2135 -1733,-3304 -91,-436 -124,-774 -124,-1241 0,-344 13,-549 54,-845 231,-1669 1108,-3320 2634,-4960 208,-223 718,-728 943,-933 319,-290 811,-711 820,-702 3,2 -95,179 -216,392 -425,749 -628,1125 -867,1608 -293,594 -519,1114 -705,1625 -607,1666 -750,3108 -434,4370 401,1606 1557,2892 3446,3836 106,53 194,97 195,98 6,5 593,3074 591,3088 -3,15 -45,1 -273,-91 z"
       id="path2"
       inkscape:connector-curvature="0"
       style="fill:#23373b;fill-opacity:1" />
    <path
       d="m 8200,18588 c -410,-187 -615,-298 -915,-497 -1038,-686 -1837,-1737 -2233,-2936 -377,-1140 -385,-2373 -22,-3500 43,-132 156,-442 165,-453 1,-2 177,70 391,159 214,88 399,165 411,170 l 22,8 -23,58 c -164,405 -271,840 -322,1313 -21,191 -24,675 -6,865 11,109 18,140 43,193 34,69 91,116 156,128 18,3 149,-3 290,-15 142,-12 271,-23 287,-24 33,-2 27,-20 85,253 130,613 402,1169 800,1640 l 89,105 -195,202 c -205,214 -232,253 -233,334 0,85 42,149 192,285 163,149 231,207 373,314 272,207 648,427 955,560 41,18 79,36 83,40 11,10 -324,820 -338,819 -5,0 -30,-10 -55,-21 z"
       id="path4"
       inkscape:connector-curvature="0"
       style="fill:#23373b;fill-opacity:1" />
    <path
       d="m 11055,17584 c -269,-16 -492,-50 -710,-110 -71,-20 -131,-37 -133,-39 -2,-2 19,-32 46,-67 27,-34 77,-106 111,-158 l 61,-95 -117,-13 c -439,-48 -1024,-227 -1484,-453 -571,-281 -1028,-653 -1372,-1118 -253,-340 -446,-763 -552,-1205 -84,-355 -107,-494 -145,-906 -74,-794 -29,-1400 141,-1897 51,-149 169,-390 249,-510 84,-125 232,-296 337,-388 48,-42 216,-171 373,-288 755,-560 1027,-791 1097,-932 53,-106 106,-381 134,-690 6,-71 14,-164 18,-205 l 6,-75 44,75 c 82,140 139,217 208,279 80,75 200,165 298,227 61,38 82,59 156,161 401,552 740,1113 1044,1728 171,346 271,569 412,925 58,146 106,266 107,267 0,0 35,-5 76,-13 460,-88 1148,-63 1980,72 206,33 529,91 560,100 8,2 28,40 43,84 55,154 182,307 314,378 172,91 403,96 577,12 158,-76 298,-253 366,-463 20,-61 24,-67 54,-73 40,-7 266,11 385,32 702,120 1456,550 2117,1209 165,164 194,197 208,239 52,160 -18,265 -213,314 -61,16 -85,31 -326,218 -1021,788 -1878,1384 -2300,1598 -206,105 -305,127 -398,87 -387,-166 -1446,-1182 -1911,-1834 -27,-37 -60,-74 -75,-81 -57,-29 -138,-41 -276,-40 -136,1 -149,3 -355,54 -118,29 -218,56 -223,60 -4,3 50,69 120,146 676,736 1272,1532 1459,1949 28,61 32,65 84,84 232,86 597,130 908,111 463,-30 884,-145 1351,-371 101,-49 189,-89 195,-89 11,0 199,129 224,153 13,14 24,8 -488,239 -922,416 -1816,767 -2315,909 -160,46 -1138,263 -1385,308 -205,37 -419,67 -575,80 -138,12 -422,20 -510,15 z"
       id="path6"
       inkscape:connector-curvature="0"
       style="fill:#23373b;fill-opacity:1" />
    <path
       d="m 16245,11984 c -120,-42 -309,-88 -960,-234 -346,-78 -632,-143 -634,-146 -8,-7 95,-46 187,-69 206,-54 446,-84 922,-115 333,-22 448,-35 496,-55 59,-24 117,-89 231,-260 62,-93 143,-213 179,-265 82,-119 148,-247 174,-342 16,-57 23,-124 30,-308 31,-734 101,-1160 240,-1460 64,-137 70,-172 38,-242 -107,-233 -631,-428 -1313,-488 -335,-30 -1179,-21 -1555,15 -496,48 -1352,302 -1643,488 -31,20 -57,33 -57,28 0,-5 154,-168 343,-362 188,-195 371,-384 406,-422 44,-46 76,-70 100,-77 20,-5 137,-23 261,-40 459,-63 650,-91 664,-96 10,-4 -69,-97 -246,-292 -144,-157 -403,-446 -577,-641 -173,-196 -455,-513 -626,-706 -172,-192 -421,-471 -556,-618 -219,-240 -303,-346 -280,-355 9,-3 391,222 671,396 290,180 548,357 763,525 384,299 424,341 862,902 194,248 292,353 425,457 218,170 441,275 745,353 174,44 377,77 750,120 530,62 687,94 839,173 171,87 286,231 337,422 20,74 23,108 23,260 0,216 -23,337 -118,622 -85,254 -100,333 -99,528 0,168 25,326 63,400 11,21 52,67 92,102 40,34 96,87 125,115 49,48 53,56 53,99 0,25 -8,62 -17,82 -10,20 -89,111 -178,202 -88,91 -286,305 -440,475 -154,171 -335,369 -402,442 -133,144 -150,171 -198,312 -17,52 -36,96 -41,97 -5,1 -40,-9 -79,-22 z"
       id="path8"
       inkscape:connector-curvature="0"
       style="fill:#23373b;fill-opacity:1" />
    <path
       d="m 13815,11854 c -426,-82 -962,-151 -1370,-175 -190,-11 -622,-7 -772,7 -55,6 -64,4 -70,-12 -114,-313 -461,-1043 -690,-1454 -227,-406 -484,-811 -758,-1195 -267,-374 -553,-691 -900,-999 -260,-231 -595,-449 -867,-566 -465,-199 -758,-437 -951,-771 -145,-253 -159,-572 -37,-836 151,-325 505,-601 958,-749 227,-73 420,-95 662,-75 437,38 837,198 1089,436 72,68 155,164 148,171 -2,2 -77,-14 -168,-36 -365,-90 -501,-91 -683,-6 -149,68 -250,200 -277,362 -11,63 -10,76 9,140 26,86 85,179 144,227 83,68 155,93 363,126 890,140 1527,361 1953,678 109,81 265,241 344,353 225,320 326,735 272,1122 -52,380 -197,791 -397,1129 l -43,74 156,2 c 718,10 1224,281 1603,858 143,219 240,440 327,748 37,130 100,414 100,450 0,20 6,20 -145,-9 z"
       id="path10"
       style="fill:#23373b;fill-opacity:1"
       inkscape:connector-curvature="0" />
    <path
       d="m 743,3305 c -12,-8 -28,-34 -37,-57 C 688,3199 38,774 21,692 -26,467 17,280 140,167 237,78 379,28 585,10 742,-4 1982,-3 2013,11 c 35,16 48,51 122,322 45,168 65,259 63,289 l -3,43 -670,5 c -368,3 -671,7 -672,8 -1,1 -9,9 -17,18 -9,8 -16,28 -16,43 0,27 121,492 141,543 6,15 18,30 27,35 10,4 253,10 542,13 l 525,5 22,45 c 34,70 157,552 149,584 l -6,26 h -513 c -422,0 -517,2 -532,14 -19,13 -17,24 59,307 52,197 84,301 97,314 19,20 36,20 711,25 l 691,5 19,26 c 24,32 157,519 158,574 0,23 -5,46 -12,53 -9,9 -261,12 -1073,12 -926,0 -1063,-2 -1082,-15 z"
       id="path12"
       inkscape:connector-curvature="0"
       style="fill:#23373b;fill-opacity:1" />
    <path
       d="m 3161,3301 c -10,-10 -26,-38 -34,-62 -23,-61 -664,-2456 -683,-2552 -23,-112 -16,-291 15,-370 46,-117 151,-212 284,-256 160,-53 160,-53 944,-58 522,-3 737,-1 752,7 33,17 45,51 114,306 79,290 80,295 72,327 l -7,26 -668,3 c -641,3 -669,4 -689,22 -12,11 -21,28 -21,40 0,11 32,140 71,286 47,176 77,272 90,285 19,19 36,20 546,25 l 526,5 18,25 c 25,34 161,544 157,590 l -3,35 -522,5 c -370,4 -525,8 -533,16 -18,18 141,603 170,626 21,17 68,18 704,18 h 683 l 20,23 c 24,26 35,58 109,332 60,221 69,289 44,305 -9,6 -425,10 -1077,10 -1024,0 -1064,-1 -1082,-19 z"
       id="path14"
       inkscape:connector-curvature="0"
       style="fill:#23373b;fill-opacity:1" />
    <path
       d="m 6320,3314 c -102,-10 -214,-29 -285,-49 -293,-85 -506,-276 -621,-558 -38,-94 -176,-603 -199,-734 -41,-236 12,-391 160,-466 17,-8 221,-58 453,-111 233,-53 446,-106 473,-117 67,-29 109,-78 109,-127 -1,-49 -92,-383 -113,-416 -42,-64 -4,-61 -746,-66 l -675,-5 -19,-33 c -21,-37 -157,-532 -157,-573 0,-15 7,-35 16,-44 15,-15 80,-16 743,-12 622,3 739,6 818,20 385,70 631,259 769,593 38,92 176,602 200,739 39,217 -17,387 -148,453 -25,12 -228,63 -469,118 -284,64 -442,105 -479,123 -61,29 -100,78 -100,123 0,35 86,360 107,405 9,20 30,40 57,53 41,20 58,20 693,20 358,0 659,3 668,6 27,11 43,55 115,321 71,260 80,309 58,331 -9,9 -177,12 -703,10 -379,0 -706,-3 -725,-4 z"
       id="path16"
       inkscape:connector-curvature="0"
       style="fill:#23373b;fill-opacity:1" />
    <path
       d="M 8735,3313 C 8271,3274 7971,3063 7823,2670 7809,2634 7684,2178 7544,1655 7365,988 7286,676 7278,607 7242,304 7376,109 7672,37 7794,7 7961,0 8615,0 c 712,0 678,-3 709,58 28,56 147,522 144,565 l -3,42 -665,5 c -516,4 -670,8 -687,18 -17,9 -23,22 -23,47 0,44 475,1822 495,1852 9,12 27,31 42,40 25,17 79,18 701,23 l 675,5 18,25 c 21,29 147,479 156,557 10,90 72,83 -711,81 -380,-1 -709,-3 -731,-5 z"
       id="path18"
       inkscape:connector-curvature="0"
       style="fill:#23373b;fill-opacity:1" />
    <path
       d="m 14067,3290 c -14,-16 -28,-38 -31,-47 -36,-119 -672,-2509 -683,-2568 -21,-110 -14,-280 16,-355 61,-157 202,-254 435,-298 133,-25 815,-24 958,1 414,73 667,283 797,662 32,94 677,2492 687,2556 4,20 1,46 -5,58 -12,21 -15,21 -360,21 -334,0 -349,-1 -374,-20 -14,-11 -30,-35 -36,-53 -6,-17 -159,-585 -340,-1260 -181,-676 -337,-1239 -345,-1252 -38,-58 -47,-60 -332,-60 -244,0 -263,1 -283,19 -12,11 -21,27 -21,37 0,10 149,573 331,1251 182,678 332,1252 333,1276 1,28 -4,46 -14,52 -9,6 -161,10 -362,10 h -346 z"
       id="path20"
       inkscape:connector-curvature="0"
       style="fill:#23373b;fill-opacity:1" />
    <path
       d="m 17180,3309 c -283,-30 -543,-153 -689,-327 -61,-73 -135,-200 -170,-292 -46,-118 -189,-672 -201,-774 -11,-105 0,-205 31,-271 23,-49 92,-117 141,-140 18,-8 221,-58 451,-110 230,-52 439,-104 465,-115 58,-26 90,-55 109,-98 13,-31 11,-45 -37,-224 -58,-217 -68,-241 -113,-265 -29,-17 -87,-18 -707,-23 -371,-3 -676,-7 -676,-8 -31,-50 -165,-530 -167,-600 -1,-28 3,-46 13,-53 10,-6 274,-8 745,-6 808,4 816,4 1016,71 232,77 421,240 529,456 53,105 74,171 154,471 90,342 99,392 94,517 -5,110 -27,174 -81,230 -63,66 -93,76 -537,176 -448,102 -529,128 -566,184 -28,41 -22,89 31,286 53,196 71,228 133,246 24,6 275,10 688,10 607,0 652,1 667,18 23,25 31,51 103,313 64,237 75,304 52,327 -14,14 -1339,15 -1478,1 z"
       id="path22"
       inkscape:connector-curvature="0"
       style="fill:#23373b;fill-opacity:1" />
    <path
       d="m 18922,3302 c -11,-11 -27,-39 -35,-63 -35,-93 -847,-3141 -847,-3177 0,-21 5,-43 12,-50 15,-15 673,-17 711,-3 13,5 31,25 40,44 9,19 79,264 154,545 l 137,510 401,5 c 423,5 446,7 605,58 274,89 489,299 589,575 52,143 239,860 253,967 39,311 -104,507 -423,579 -90,21 -124,22 -836,25 -722,4 -742,4 -761,-15 z m 1178,-665 c 17,-9 26,-22 28,-45 3,-27 -158,-657 -187,-734 -5,-13 -24,-37 -41,-51 l -32,-27 h -289 c -223,0 -291,3 -294,13 -3,6 44,194 104,417 88,325 113,408 131,422 20,16 48,18 289,18 193,0 273,-4 291,-13 z"
       id="path24"
       inkscape:connector-curvature="0"
       style="fill:#23373b;fill-opacity:1" />
    <path
       d="m 11598,2305 c -233,-59 -415,-237 -478,-469 -19,-67 -21,-98 -18,-200 7,-192 60,-317 189,-445 76,-76 147,-122 251,-159 67,-24 86,-27 218,-27 125,0 154,4 210,23 197,70 352,225 422,422 20,56 23,84 23,210 0,126 -3,154 -23,210 -70,198 -227,354 -422,421 -83,29 -284,36 -372,14 z"
       id="path26"
       inkscape:connector-curvature="0"
       style="fill:#23373b;fill-opacity:1" />
  </g>
</svg>
